<?xml version="1.0" encoding="UTF-8" standalone="no"?>
<!-- Created with Inkscape (http://www.inkscape.org/) -->

<svg
   width="100"
   height="100"
   viewBox="0 0 26.458333 26.458333"
   version="1.1"
   id="svg5"
   xmlns="http://www.w3.org/2000/svg"
   xmlns:svg="http://www.w3.org/2000/svg">
  <defs
     id="defs2" />
  <g
     id="layer1">
    <path
       id="path9246"
       style="color:#000000;opacity:0.951456;fill:#ffffff;stroke-linecap:square;stroke-dashoffset:0.300472"
       d="m 15.613773,16.062729 -1.95703,-2.693623 3.1691,-1.03008 c 0.33252,1.339052 -0.10543,2.79526 -1.21211,3.723688 z m -5.9005797,2.454303 1.2459697,-1.71493 c 1.41239,0.898845 3.18615,0.858313 4.53856,0.0015 l 1.24742,1.716244 c -2.07719,1.382076 -4.85215,1.449243 -7.0319497,-0.0028 z m 1.5576197,-2.14387 1.95703,-2.693628 1.95897,2.695681 c -1.17076,0.730035 -2.69103,0.763513 -3.916,-0.0021 z m -6.67636,-5.671756 2.01504,0.654725 c -0.77759,2.740838 0.22985,5.598392 2.36357,7.279571 l -1.24581,1.715403 c -2.85811,-2.206217 -4.20137,-6.008693 -3.1328,-9.649699 z m 2.5188,0.818406 2.0160203,0.655044 c -0.4184003,1.621018 0.16827,3.295441 1.4010797,4.316883 L 9.2835833,18.208457 C 7.327263,16.660014 6.405873,14.041625 7.113253,11.519812 Z m 2.5202703,0.818885 3.1665497,1.028876 -1.95839,2.696102 C 9.7855933,15.175808 9.2839633,13.740286 9.6335233,12.338697 Z M 12.964583,1.0619507 v 2.6468668 c -4.02287,0.109363 -7.42445,2.7169216 -8.71006,6.3262285 L 1.734263,9.2164917 c 1.62838,-4.6742812 6.02332,-8.0443101 11.23032,-8.154541 z m 0,3.1744832 v 2.1187337 c -2.84698,0.1074337 -5.25336,1.9485986 -6.1929,4.4974004 l -2.01642,-0.654741 c 1.21503,-3.3999917 4.4163103,-5.8525366 8.20932,-5.9613931 z m 0,2.6484172 V 9.0046183 C 11.293613,9.1076244 9.8824333,10.183007 9.2919433,11.671122 L 7.273973,11.015865 c 0.86812,-2.339069 3.07363,-4.024491 5.69061,-4.1310139 z m 0,2.6499674 V 12.864331 L 9.7952633,11.834937 C 10.313323,10.556164 11.523573,9.6354837 12.964583,9.5348185 Z" />
  </g>
</svg>
